<svg width="50" height="38" xmlns="http://www.w3.org/2000/svg"><g fill="currentColor" fill-rule="evenodd"><path d="M20 0v15l-.001.001-.003.403c-.155 8.33-5.102 15.442-12.099 18.492l-3.881-3.88c2.617-2.479 4.587-6.045 5.518-10.19L0 16.25V0h20zM46 0v15l-.001.001-.003.403c-.155 8.33-5.102 15.442-12.099 18.492l-3.881-3.88c2.617-2.479 4.587-6.045 5.518-10.19L26 16.25V0h20z"/><g opacity=".499"><path d="M24 4v15l-.001.001-.003.403c-.155 8.33-5.102 15.442-12.099 18.492l-3.881-3.88c2.617-2.479 4.587-6.045 5.518-10.19L4 20.25V4h20zM50 4v15l-.001.001-.003.403c-.155 8.33-5.102 15.442-12.099 18.492l-3.881-3.88c2.617-2.479 4.587-6.045 5.518-10.19L30 20.25V4h20z"/></g></g></svg>
